<svg width="164" height="167" viewBox="0 0 164 167" fill="none" xmlns="http://www.w3.org/2000/svg">
<g filter="url(#filter0_d)">
<path d="M43.5625 35.875H33.3125V41H43.5625V35.875Z" fill="#1C1B1B"/>
<path d="M38.4375 48.6875C39.8527 48.6875 41 47.5402 41 46.125C41 44.7098 39.8527 43.5625 38.4375 43.5625C37.0223 43.5625 35.875 44.7098 35.875 46.125C35.875 47.5402 37.0223 48.6875 38.4375 48.6875Z" fill="#1C1B1B"/>
<path d="M138.375 25.625H115.312C110.325 25.622 105.509 27.445 101.775 30.75H84.5625C82.401 30.7495 80.2638 31.2058 78.291 32.089C76.3182 32.9722 74.5543 34.2624 73.115 35.875H71.75V25.625C71.7439 20.1899 69.5821 14.9792 65.7389 11.1361C61.8957 7.29289 56.685 5.13111 51.25 5.125H43.5625C41.9709 5.12512 40.4012 5.49622 38.978 6.20886C37.5549 6.9215 36.3175 7.95606 35.3639 9.23041C34.0349 8.22753 32.4149 7.6858 30.75 7.6875C28.0325 7.69061 25.4271 8.77151 23.5056 10.6931C21.584 12.6147 20.5031 15.22 20.5 17.9375V53.8125C20.4944 58.9453 22.0393 63.9602 24.9323 68.2001L13.5554 75.3107C10.9689 76.9159 8.83628 79.1564 7.36061 81.8189C5.88493 84.4814 5.11529 87.4773 5.12497 90.5214V156.312C5.125 156.992 5.39499 157.644 5.87554 158.124C6.3561 158.605 7.00786 158.875 7.68747 158.875H84.5625C85.2421 158.875 85.8938 158.605 86.3744 158.124C86.8549 157.644 87.1249 156.992 87.125 156.312V128.125H91.3263C97.5179 128.107 103.601 126.496 108.989 123.445C114.377 120.394 118.888 116.008 122.089 110.708L135.395 88.5303L143.68 76.9326C146.42 73.1078 148.089 68.6195 148.511 63.9329C152.443 61.6972 155.525 58.2233 157.276 54.0527C159.028 49.8821 159.35 45.2492 158.193 40.8762C157.036 36.5033 154.465 32.636 150.88 29.8773C147.295 27.1186 142.898 25.6235 138.375 25.625V25.625ZM115.312 30.75H124.837C122.65 32.67 120.897 35.0347 119.697 37.6861C118.496 40.3374 117.875 43.2145 117.875 46.125C117.875 49.0355 118.496 51.9126 119.697 54.5639C120.897 57.2153 122.65 59.58 124.837 61.5H115.312C111.235 61.5 107.324 59.8801 104.441 56.9968C101.557 54.1134 99.9375 50.2027 99.9375 46.125C99.9375 42.0473 101.557 38.1366 104.441 35.2532C107.324 32.3699 111.235 30.75 115.312 30.75ZM36.3009 25.3185C37.6165 27.0094 39.3007 28.3777 41.2253 29.3189C43.1498 30.2602 45.2638 30.7497 47.4062 30.75H66.6246V35.875H56.375C54.1189 35.8742 51.9256 36.618 50.1355 37.991C48.3453 39.364 47.0584 41.2895 46.4743 43.4686C45.8902 45.6478 46.0417 47.9588 46.9052 50.0431C47.7687 52.1273 49.2959 53.8684 51.25 54.996V56.375C51.2492 57.0544 50.979 57.7057 50.4986 58.1861C50.0182 58.6665 49.3668 58.9367 48.6875 58.9375H46.125V64.0625H48.6875C50.7256 64.0602 52.6796 63.2495 54.1208 61.8083C55.562 60.3671 56.3726 58.4131 56.375 56.375H66.4591C65.8079 61.5486 63.2094 66.2796 59.1926 69.6046C55.1758 72.9297 50.0427 74.5988 44.8385 74.2722C39.6343 73.9457 34.7502 71.6479 31.1806 67.8468C27.611 64.0456 25.6243 59.027 25.625 53.8125V30.75H26.0638C28.084 30.7494 30.0732 30.254 31.8578 29.3072C33.6423 28.3604 35.1678 26.991 36.3009 25.3185V25.3185ZM56.375 51.25C55.0157 51.25 53.7122 50.71 52.751 49.7489C51.7899 48.7878 51.25 47.4842 51.25 46.125C51.25 44.7658 51.7899 43.4622 52.751 42.5011C53.7122 41.54 55.0157 41 56.375 41H70.0691C68.8936 44.3156 68.8936 47.9344 70.0691 51.25H56.375ZM54.7332 90.493L53.9169 87.2279L56.2436 80.248C56.3306 79.9866 56.3749 79.713 56.375 79.4375V77.2915C59.1992 76.052 61.7774 74.3144 63.9863 72.1618L66.4758 73.7178L54.7332 90.493ZM42.8468 84.5625L41 79.0218V78.9218C44.382 79.6094 47.8679 79.6094 51.25 78.9218V79.0218L49.4032 84.5625H42.8468ZM35.875 77.2915V79.4375C35.875 79.713 35.9194 79.9866 36.0063 80.248L38.333 87.2279L37.5167 90.493L25.7741 73.7178L28.2636 72.1618C30.4725 74.3144 33.0507 76.052 35.875 77.2915V77.2915ZM42.3342 97.375L41.4091 96.0536L43.0006 89.6875H49.2493L50.8408 96.0536L49.9158 97.375H42.3342ZM70.8277 76.4377L75.9782 79.6568C76.791 80.1648 77.544 80.7628 78.2231 81.4393L64.1713 94.0859C61.9682 96.0711 59.1437 97.2291 56.181 97.3617L70.8277 76.4377ZM82.0348 78.0088C81.0339 76.9784 79.9124 76.0725 78.6945 75.3107L67.3177 68.2C69.7189 64.6804 71.1987 60.6146 71.6216 56.375H73.115C74.4676 57.89 76.1075 59.1214 77.9396 59.9978C79.7717 60.8742 81.7596 61.3781 83.788 61.4804C82.8377 65.9834 82.9246 70.6435 84.042 75.108L84.2653 76.0013L82.0348 78.0088ZM89.4011 75.4144L89.0137 73.8649C87.9968 69.8048 88.0065 65.5554 89.0417 61.5H101.775C104.855 64.2219 108.685 65.9509 112.763 66.4609L99.5098 83.5013L89.4011 75.4144ZM102.057 88.5739L116.46 70.0551L117.674 76.1264L103.129 92.4896C101.548 94.2655 99.5565 95.6271 97.3278 96.4554L102.057 88.5739ZM84.5625 35.875H97.5703C95.7639 38.989 94.8125 42.525 94.8125 46.125C94.8125 49.725 95.7639 53.261 97.5703 56.375H84.5625C81.844 56.375 79.2369 55.2951 77.3146 53.3728C75.3924 51.4506 74.3125 48.8435 74.3125 46.125C74.3125 43.4065 75.3924 40.7994 77.3146 38.8772C79.2369 36.9549 81.844 35.875 84.5625 35.875ZM43.5625 10.25H51.25C55.3263 10.2546 59.2343 11.8759 62.1167 14.7583C64.9991 17.6407 66.6204 21.5487 66.625 25.625H47.4062C45.0284 25.6223 42.7487 24.6766 41.0673 22.9952C39.3859 21.3138 38.4401 19.0341 38.4375 16.6562V15.375C38.439 14.0162 38.9795 12.7136 39.9403 11.7528C40.901 10.792 42.2037 10.2516 43.5625 10.25V10.25ZM30.75 12.8125C31.4293 12.8133 32.0807 13.0835 32.5611 13.5639C33.0415 14.0443 33.3117 14.6956 33.3125 15.375V18.3764C33.3103 20.2982 32.546 22.1406 31.187 23.4996C29.8281 24.8585 27.9856 25.6229 26.0638 25.625H25.625V17.9375C25.6265 16.5787 26.167 15.2761 27.1278 14.3153C28.0885 13.3545 29.3912 12.8141 30.75 12.8125V12.8125ZM10.25 90.5214C10.2431 88.3471 10.7928 86.2072 11.8469 84.3054C12.901 82.4036 14.4243 80.8033 16.2718 79.6568L21.4222 76.4377L36.0783 97.375H30.75V102.5H55.6001C60.032 102.503 64.3073 100.862 67.5997 97.8952L87.2226 80.2345L96.588 87.7268L84.382 108.071C81.6384 112.614 77.7713 116.374 73.153 118.989C68.5347 121.603 63.3209 122.985 58.0138 123H35.875C29.0811 122.992 22.5678 120.29 17.7638 115.486C12.9599 110.682 10.2576 104.169 10.25 97.375V90.5214ZM82 153.75H10.25V114.353C13.0523 118.585 16.8591 122.058 21.3305 124.461C25.8019 126.865 30.7987 128.123 35.875 128.125H82V153.75ZM117.694 108.071C114.951 112.614 111.084 116.374 106.465 118.989C101.847 121.603 96.6334 122.985 91.3263 123H76.4339C81.4961 119.98 85.7354 115.757 88.7766 110.708L93.7391 102.437C98.8272 102.051 103.567 99.7054 106.96 95.8942L120.737 80.3956L129.9 87.7268L117.694 108.071ZM139.509 73.9534L132.738 83.4334L122.767 75.457L121.001 66.625H138.375C139.933 66.6239 141.486 66.445 143.003 66.0917C142.385 68.9225 141.196 71.5975 139.509 73.9534V73.9534ZM138.375 61.5C135.334 61.5 132.361 60.5983 129.833 58.9088C127.305 57.2194 125.334 54.8182 124.17 52.0088C123.007 49.1993 122.702 46.1079 123.295 43.1255C123.889 40.143 125.353 37.4035 127.503 35.2532C129.653 33.103 132.393 31.6387 135.375 31.0454C138.358 30.4522 141.449 30.7567 144.259 31.9204C147.068 33.0841 149.469 35.0547 151.159 37.5831C152.848 40.1115 153.75 43.0841 153.75 46.125C153.745 50.2013 152.124 54.1093 149.242 56.9917C146.359 59.8741 142.451 61.4954 138.375 61.5V61.5Z" fill="#1C1B1B"/>
<path d="M138.375 48.6875H133.25V53.8125H138.375V48.6875Z" fill="#1C1B1B"/>
<path d="M148.625 48.6875H143.5V53.8125H148.625V48.6875Z" fill="#1C1B1B"/>
</g>
<defs>
<filter id="filter0_d" x="-4" y="0" width="172" height="172" filterUnits="userSpaceOnUse" color-interpolation-filters="sRGB">
<feFlood flood-opacity="0" result="BackgroundImageFix"/>
<feColorMatrix in="SourceAlpha" type="matrix" values="0 0 0 0 0 0 0 0 0 0 0 0 0 0 0 0 0 0 127 0"/>
<feOffset dy="4"/>
<feGaussianBlur stdDeviation="2"/>
<feColorMatrix type="matrix" values="0 0 0 0 0 0 0 0 0 0 0 0 0 0 0 0 0 0 0.25 0"/>
<feBlend mode="normal" in2="BackgroundImageFix" result="effect1_dropShadow"/>
<feBlend mode="normal" in="SourceGraphic" in2="effect1_dropShadow" result="shape"/>
</filter>
</defs>
</svg>
