<svg width="168" height="170" viewBox="0 0 168 170" fill="none" xmlns="http://www.w3.org/2000/svg">
<g filter="url(#filter0_d)">
<path d="M84 120.438C112.259 120.438 135.25 97.4467 135.25 69.1875C135.25 40.9282 112.259 17.9375 84 17.9375C55.7407 17.9375 32.75 40.9282 32.75 69.1875C32.75 97.4467 55.7407 120.438 84 120.438ZM84 115.312C68.9299 115.312 55.5639 108.015 47.141 96.801C49.7676 87.8323 55.4538 80.3702 62.9106 75.481L69.7909 99.2097L84 87.8451L98.2065 99.2097L105.087 75.4861C112.546 80.3754 118.238 87.8322 120.864 96.7959C112.441 108.009 99.0726 115.312 84 115.312ZM68.625 48.6875C68.625 40.2082 75.5207 33.3125 84 33.3125C92.4793 33.3125 99.375 40.2082 99.375 48.6875C99.375 57.1668 92.4793 64.0625 84 64.0625C75.5207 64.0625 68.625 57.1668 68.625 48.6875ZM84 80.2037L76.5406 69.9409C78.9673 69.4643 81.4554 69.1875 84.0026 69.1875C86.5471 69.1875 89.0353 69.4642 91.4569 69.9434L84 80.2037ZM96.7561 71.3682C98.0348 71.8192 99.2751 72.3522 100.492 72.9313L95.4185 90.4153L87.5106 84.0884L96.7561 71.3682ZM71.2413 71.3656L80.4894 84.0884L72.5815 90.4153L67.5052 72.9287C68.7224 72.3496 69.9626 71.8166 71.2413 71.3656ZM84 23.0625C109.433 23.0625 130.125 43.7547 130.125 69.1875C130.125 77.2337 128.042 84.8008 124.406 91.3941C119.306 78.6764 108.538 69.2003 95.521 65.6333C100.936 61.9382 104.5 55.7216 104.5 48.6875C104.5 37.3843 95.3032 28.1875 84 28.1875C72.6968 28.1875 63.5 37.3843 63.5 48.6875C63.5 55.7216 67.0644 61.9382 72.479 65.6307C59.4564 69.1978 48.6964 78.6739 43.5996 91.3967C39.9583 84.8034 37.875 77.2363 37.875 69.1875C37.875 43.7547 58.5672 23.0625 84 23.0625Z" fill="#1C1B1B"/>
<path d="M119.157 76.3676L124.183 77.3824C124.549 75.5707 124.792 73.7308 124.91 71.914L119.796 71.5834C119.693 73.1722 119.478 74.7814 119.157 76.3676Z" fill="#1C1B1B"/>
<path d="M124.91 66.4584C124.39 58.5172 121.584 50.9527 116.8 44.5849L112.7 47.6625C116.887 53.2333 119.34 59.8497 119.796 66.7941L124.91 66.4584Z" fill="#1C1B1B"/>
<path d="M62.4776 40.4849L59.3949 36.39C58.047 37.4048 56.7453 38.5169 55.5281 39.688L59.0874 43.3754C60.1508 42.3478 61.2911 41.3741 62.4776 40.4849Z" fill="#1C1B1B"/>
<path d="M49.414 59.6191C49.8394 58.0816 50.3698 56.5672 50.9899 55.1117L46.2801 53.095C45.5677 54.7606 44.9578 56.498 44.4735 58.2584L49.414 59.6191Z" fill="#1C1B1B"/>
<path d="M55.874 46.9143L51.856 43.7316C50.7259 45.1641 49.6804 46.6734 48.7554 48.2288L53.1603 50.8503C53.9675 49.487 54.8823 48.1648 55.874 46.9143Z" fill="#1C1B1B"/>
<path d="M81.4375 105.062H86.5625V110.188H81.4375V105.062Z" fill="#1C1B1B"/>
<path d="M81.4375 94.8125H86.5625V99.9375H81.4375V94.8125Z" fill="#1C1B1B"/>
<path d="M163.645 130.688H130.125V120.438H125.351C126.804 118.185 127.629 115.551 127.642 112.827C132.564 112.806 137.251 110.205 139.778 105.829L143.622 99.1713C146.148 94.7946 146.056 89.4338 143.614 85.1596C147.868 82.6816 150.625 78.0871 150.625 73.0312V65.3438C150.625 60.2879 147.868 55.6934 143.614 53.2154C146.056 48.9412 146.148 43.5804 143.622 39.2037L139.778 32.5463C137.251 28.1696 132.567 25.5661 127.642 25.5481C127.621 20.6256 125.02 15.9388 120.644 13.4121L113.986 9.56838C109.61 7.04175 104.249 7.134 99.9745 9.57606C97.494 5.31975 92.8995 2.5625 87.8437 2.5625H80.1562C75.1004 2.5625 70.5058 5.31975 68.0279 9.5735C63.751 7.13144 58.3929 7.03919 54.0161 9.56581L47.3587 13.4096C42.982 15.9387 40.381 20.6256 40.3605 25.5481C35.438 25.5686 30.7512 28.1696 28.2245 32.5463L24.3808 39.2037C21.8542 43.5804 21.9464 48.9412 24.3885 53.2154C20.1322 55.6934 17.3749 60.2879 17.3749 65.3438V73.0312C17.3749 78.0871 20.1322 82.6816 24.3859 85.1596C21.9439 89.4338 21.8516 94.7946 24.3782 99.1713L28.222 105.829C30.7486 110.205 35.4329 112.809 40.358 112.827C40.3682 115.548 41.1934 118.185 42.6489 120.438H37.8749V130.688H4.35486L16.6574 146.062L4.35486 161.438H63.4999V146.062H104.5V161.438H163.645L151.342 146.062L163.645 130.688ZM48.394 125.562L54.0135 128.809C58.3903 131.333 63.7485 131.244 68.0227 128.801C70.5058 133.055 75.1004 135.812 80.1562 135.812H87.8437C92.8995 135.812 97.4941 133.055 99.972 128.801C104.246 131.244 109.604 131.338 113.984 128.809L119.606 125.562H125V140.938H42.9999V125.562H48.394ZM32.6628 103.266L28.819 96.6088C26.8305 93.1622 27.402 88.7547 30.213 85.8822L33.2419 82.7892L29.0727 81.6233C25.2034 80.5445 22.4999 77.0108 22.4999 73.0312V65.3438C22.4999 61.3642 25.2034 57.8305 29.0702 56.7491L33.2394 55.5832L30.2105 52.4902C27.3994 49.6202 26.828 45.2102 28.8165 41.7636L32.6602 35.1063C34.6462 31.6622 38.759 29.9531 42.6437 30.9499L46.8411 32.0261L45.7649 27.8287C44.7655 23.9389 46.4747 19.8363 49.9212 17.8453L56.5786 14.0015C60.0226 12.0104 64.4275 12.5819 67.3052 15.3955L70.3982 18.4244L71.5641 14.2552C72.6429 10.3909 76.1766 7.6875 80.1562 7.6875H87.8437C91.8232 7.6875 95.3569 10.3909 96.4383 14.2578L97.6042 18.4269L100.697 15.3981C103.57 12.587 107.977 12.0104 111.424 14.0041L118.081 17.8478C121.528 19.8363 123.237 23.9414 122.238 27.8313L121.161 32.0287L125.359 30.9524C129.243 29.9531 133.351 31.6648 135.342 35.1088L139.186 41.7662C141.174 45.2127 140.603 49.6203 137.792 52.4928L134.763 55.5857L138.932 56.7517C142.796 57.8305 145.5 61.3642 145.5 65.3438V73.0312C145.5 77.0108 142.796 80.5445 138.93 81.6259L134.76 82.7918L137.789 85.8848C140.6 88.7547 141.172 93.1648 139.183 96.6114L135.34 103.269C133.354 106.715 129.243 108.419 125.356 107.425L121.159 106.349L122.235 110.546C123.234 114.436 121.525 118.539 118.079 120.53L111.421 124.373C107.975 126.365 103.567 125.791 100.695 122.979L97.6017 119.951L96.4357 124.12C95.3569 127.984 91.8232 130.688 87.8437 130.688H80.1562C76.1766 130.688 72.6429 127.984 71.5615 124.117L70.3956 119.948L67.3027 122.977C64.4352 125.788 60.0226 126.362 56.576 124.371L49.9187 120.527C46.4721 118.539 44.7629 114.434 45.7623 110.544L46.8385 106.346L42.6412 107.423C38.759 108.417 34.6487 106.713 32.6628 103.266ZM23.2174 146.062L15.02 135.812H37.8749V144.781L53.2499 156.312H15.02L23.2174 146.062ZM58.3749 153.75L48.1249 146.062H58.3749V153.75ZM119.875 146.062L109.625 153.75V146.062H119.875ZM152.98 156.312H114.75L130.125 144.781V135.812H152.98L144.782 146.062L152.98 156.312Z" fill="#1C1B1B"/>
</g>
<defs>
<filter id="filter0_d" x="-2" y="0" width="172" height="172" filterUnits="userSpaceOnUse" color-interpolation-filters="sRGB">
<feFlood flood-opacity="0" result="BackgroundImageFix"/>
<feColorMatrix in="SourceAlpha" type="matrix" values="0 0 0 0 0 0 0 0 0 0 0 0 0 0 0 0 0 0 127 0"/>
<feOffset dy="4"/>
<feGaussianBlur stdDeviation="2"/>
<feColorMatrix type="matrix" values="0 0 0 0 0 0 0 0 0 0 0 0 0 0 0 0 0 0 0.25 0"/>
<feBlend mode="normal" in2="BackgroundImageFix" result="effect1_dropShadow"/>
<feBlend mode="normal" in="SourceGraphic" in2="effect1_dropShadow" result="shape"/>
</filter>
</defs>
</svg>
