<svg width="164" height="152" viewBox="0 0 164 152" fill="none" xmlns="http://www.w3.org/2000/svg">
<path d="M151.897 70.2344L163.062 59.0699C163.978 58.1538 164.252 56.7758 163.756 55.5791C163.26 54.3821 162.092 53.6018 160.797 53.6018H137.654C134.629 41.2185 128.28 29.9349 119.204 20.8585C106.015 7.66966 88.4799 0.40625 69.8281 0.40625C51.1763 0.40625 33.6408 7.66966 20.4523 20.8585C7.26341 34.0474 0 51.5826 0 70.2344C0 88.8862 7.26341 106.422 20.4523 119.61C24.3742 123.532 28.6827 126.926 33.2885 129.764L23.6384 146.813C23.0772 147.804 23.0849 149.02 23.6589 150.004C24.2326 150.988 25.2861 151.594 26.4258 151.594H42.9219C44.076 151.594 45.141 150.973 45.7096 149.968L52.5329 137.914C58.1175 139.33 63.9164 140.062 69.8281 140.062C75.7398 140.062 81.5387 139.33 87.1234 137.914L93.9467 149.968C94.5153 150.973 95.5803 151.594 96.7344 151.594H113.23C114.37 151.594 115.424 150.988 115.998 150.004C116.572 149.02 116.579 147.804 116.018 146.813L106.368 129.764C110.974 126.926 115.282 123.532 119.204 119.611C128.277 110.538 134.629 99.2496 137.654 86.8672H160.797C162.092 86.8672 163.26 86.0866 163.756 84.89C164.252 83.6933 163.978 82.3153 163.062 81.3992L151.897 70.2344ZM146.04 67.0312H123.686L130.709 60.0081H153.064L146.04 67.0312ZM41.0541 145.188H31.9195L38.8914 132.871C41.2841 134.055 43.7406 135.103 46.2538 136.002L41.0541 145.188ZM107.737 145.188H98.6021L93.4025 136.002C95.9157 135.103 98.3721 134.055 100.765 132.871L107.737 145.188ZM114.674 115.08C110.443 119.312 105.717 122.868 100.63 125.703C100.567 125.733 100.503 125.762 100.442 125.797C100.403 125.819 100.368 125.844 100.33 125.868C96.4278 128.014 92.3157 129.738 88.0488 131.011C87.8809 131.044 87.715 131.093 87.5513 131.155C81.8645 132.801 75.9125 133.656 69.8281 133.656C63.7438 133.656 57.7917 132.801 52.1049 131.155C51.9409 131.094 51.775 131.044 51.6068 131.011C47.3403 129.738 43.2281 128.015 39.326 125.868C39.2886 125.844 39.2533 125.819 39.2146 125.797C39.1528 125.762 39.0897 125.733 39.0269 125.703C33.9397 122.868 29.2138 119.312 24.9825 115.08C13.0034 103.102 6.40625 87.1751 6.40625 70.2344C6.40625 53.2937 13.0034 37.3671 24.9821 25.3884C36.9609 13.4097 52.8874 6.8125 69.8281 6.8125C86.7688 6.8125 102.695 13.4097 114.674 25.3884C122.545 33.2594 128.159 42.9556 131.041 53.6018H129.383C128.533 53.6018 127.719 53.9394 127.118 54.54L118.617 63.0414C117.759 57.2178 115.876 51.5554 113.033 46.4057C112.178 44.857 110.229 44.2951 108.68 45.1497C107.132 46.0047 106.57 47.9534 107.424 49.5021C110.465 55.0096 112.164 60.9975 112.598 67.0316H98.4753C97.7623 60.5433 94.8951 54.5327 90.2128 49.8503C84.7678 44.405 77.5284 41.4062 69.8281 41.4062C62.1278 41.4062 54.8884 44.405 49.4438 49.8497C43.9988 55.295 41 62.5341 41 70.2344C41 77.9347 43.9988 85.1741 49.4434 90.6187C54.8884 96.0637 62.1278 99.0625 69.8281 99.0625C77.5284 99.0625 84.7678 96.0637 90.2125 90.6191C94.8948 85.9367 97.7619 79.9261 98.475 73.4375H112.584C111.82 83.4505 107.595 93.1675 100.178 100.585C92.0716 108.692 81.2927 113.156 69.8281 113.156C58.3635 113.156 47.5847 108.692 39.4779 100.585C31.3708 92.4778 26.9062 81.6993 26.9062 70.2344C26.9062 58.7694 31.3708 47.9909 39.4779 39.8841C52.9252 26.4368 73.9313 23.4572 90.5607 32.6383C92.1091 33.4929 94.0578 32.9311 94.9131 31.3824C95.768 29.8337 95.2058 27.8852 93.6571 27.03C84.4818 21.9642 73.678 19.9453 63.2367 21.3464C52.447 22.7935 42.6647 27.6373 34.948 35.3543C25.6311 44.6712 20.5 57.0583 20.5 70.2344C20.5 83.4104 25.6311 95.7979 34.9477 105.114C44.2646 114.431 56.6521 119.562 69.8281 119.562C83.0042 119.562 95.3916 114.431 104.708 105.115C112.279 97.5445 117.082 87.9861 118.628 77.4392L127.118 85.929C127.718 86.5296 128.533 86.8672 129.383 86.8672H131.04C128.158 97.5128 122.542 107.213 114.674 115.08ZM80.2895 64.1946C79.4052 62.6622 77.4461 62.1375 75.9141 63.0222L68.2266 67.4605C67.2355 68.0325 66.625 69.0899 66.625 70.2344C66.625 71.3789 67.2355 72.4362 68.2266 73.0083L75.9141 77.4465C76.4186 77.7377 76.9692 77.8761 77.5127 77.8761C78.6197 77.8761 79.6963 77.3017 80.2895 76.2742C80.8094 75.3741 80.8392 74.3277 80.4673 73.4375H92.0216C91.3429 78.2111 89.1529 82.6189 85.6826 86.0889C81.4478 90.3241 75.8173 92.6562 69.8281 92.6562C63.8389 92.6562 58.2085 90.3241 53.9733 86.0889C49.7384 81.854 47.4062 76.2236 47.4062 70.2344C47.4062 64.2452 49.7384 58.6147 53.9736 54.3795C58.2085 50.1447 63.8389 47.8125 69.8281 47.8125C75.8173 47.8125 81.4478 50.1447 85.6829 54.3799C89.1529 57.8498 91.3432 62.2576 92.0219 67.0312H80.4676C80.8392 66.1408 80.8094 65.0946 80.2895 64.1946ZM130.709 80.4607L123.686 73.4375H146.04L153.064 80.4607H130.709Z" fill="white"/>
</svg>
